HIERARCHY
ROOT Hips
{
  OFFSET 38.0524 98.8127 3.3377
  CHANNELS 6 Xposition Yposition Zposition Zrotation Xrotation Yrotation
  JOINT spine
  {
    OFFSET 0 8.30104 0.477351
    CHANNELS 3 Zrotation Xrotation Yrotation
    JOINT spine1
    {
      OFFSET 0 10.4565 0
      CHANNELS 3 Zrotation Xrotation Yrotation
      JOINT spine2
      {
        OFFSET 0 10.0192 0
        CHANNELS 3 Zrotation Xrotation Yrotation
        JOINT Neck
        {
          OFFSET 0 25.7235 1.22641
          CHANNELS 3 Zrotation Xrotation Yrotation
          JOINT Head
          {
            OFFSET 0 7.77175 0
            CHANNELS 3 Zrotation Xrotation Yrotation
            End Site
            {
              OFFSET 0 18.812 -6.20394
            }
          }
        }
        JOINT RightShoulder
        {
          OFFSET -4.2188 10.82 -0.587439
          CHANNELS 3 Zrotation Xrotation Yrotation
          JOINT RightArm
          {
            OFFSET 0 14.1914 0
            CHANNELS 3 Zrotation Xrotation Yrotation
            JOINT RightArmRoll
            {
              OFFSET 0 7.16408 0
              CHANNELS 3 Zrotation Xrotation Yrotation
              JOINT RightForeArm
              {
                OFFSET 0 20.8665 0
                CHANNELS 3 Zrotation Xrotation Yrotation
                JOINT RightForeArmRoll
                {
                  OFFSET 0 8.03921 0
                  CHANNELS 3 Zrotation Xrotation Yrotation
                  JOINT RightHand
                  {
                    OFFSET 0 16.133 0
                    CHANNELS 3 Zrotation Xrotation Yrotation
                    End Site
                    {
                      OFFSET 0 0 0
                    }
                  }
                }
              }
            }
          }
        }
        JOINT LeftShoulder
        {
          OFFSET 4.2188 10.82 -0.587439
          CHANNELS 3 Zrotation Xrotation Yrotation
          JOINT LeftArm
          {
            OFFSET 0 14.1914 0
            CHANNELS 3 Zrotation Xrotation Yrotation
            JOINT LeftArmRoll
            {
              OFFSET 0 7.16408 0
              CHANNELS 3 Zrotation Xrotation Yrotation
              JOINT LeftForeArm
              {
                OFFSET 0 20.8665 0
                CHANNELS 3 Zrotation Xrotation Yrotation
                JOINT LeftForeArmRoll
                {
                  OFFSET 0 8.03921 0
                  CHANNELS 3 Zrotation Xrotation Yrotation
                  JOINT LeftHand
                  {
                    OFFSET 0 16.133 0
                    CHANNELS 3 Zrotation Xrotation Yrotation
                    End Site
                    {
                      OFFSET 0 0 0
                    }
                  }
                }
              }
            }
          }
        }
      }
    }
  }
  JOINT RightUpLeg
  {
    OFFSET -7.35773 -1.34921 -1.13181
    CHANNELS 3 Zrotation Xrotation Yrotation
    JOINT RightUpLegRoll
    {
      OFFSET 0 18.9168 0
      CHANNELS 3 Zrotation Xrotation Yrotation
      JOINT RightLeg
      {
        OFFSET 0 -23.4256 0
        CHANNELS 3 Zrotation Xrotation Yrotation
        JOINT RightLegRoll
        {
          OFFSET 0 23.5023 0
          CHANNELS 3 Zrotation Xrotation Yrotation
          JOINT RightFoot
          {
            OFFSET 0 19.5617 0
            CHANNELS 3 Zrotation Xrotation Yrotation
            JOINT RightToeBase
            {
              OFFSET 0 16.3526 0
              CHANNELS 3 Zrotation Xrotation Yrotation
              End Site
              {
                OFFSET 0.00693124 7.91943 -0.912837
              }
            }
          }
        }
      }
    }
  }
  JOINT LeftUpLeg
  {
    OFFSET 7.35773 -1.34921 -1.13181
    CHANNELS 3 Zrotation Xrotation Yrotation
    JOINT LeftUpLegRoll
    {
      OFFSET 0 18.9169 0
      CHANNELS 3 Zrotation Xrotation Yrotation
      JOINT LeftLeg
      {
        OFFSET 0 23.4255 0
        CHANNELS 3 Zrotation Xrotation Yrotation
        JOINT LeftLegRoll
        {
          OFFSET 0 23.7195 0
          CHANNELS 3 Zrotation Xrotation Yrotation
          JOINT LeftFoot
          {
            OFFSET 0 19.3444 0
            CHANNELS 3 Zrotation Xrotation Yrotation
            JOINT LeftToeBase
            {
              OFFSET 0 16.3526 0
              CHANNELS 3 Zrotation Xrotation Yrotation
              End Site
              {
                OFFSET -0.0310629 7.91944 -0.912837
              }
            }
          }
        }
      }
    }
  }
}
MOTION
Frames: 6
Frame Time: 0.00208333
37.9454 98.8031 2.21587 0.806482 -4.06202 1.06488 -0.0974664 -1.43017 0.0554507 -0.194196 1.14237 0.117832 -0.19581 2.78744 0.121148 1.56611 26.4597 -1.95619 -1.44751 -8.89599 -1.6128 69.4626 -2.80904 -2.66145 117.46 35.1384 -50.3418 -5.717e-006 3.18716e-006 4.69676e-006 76.9184 84.2321 -78.1577 6.16748e-007 -6.18645e-006 -3.00072 8.02887 -4.95144 0.697695 -66.6524 5.32133 -1.81829 -108.26 36.41 22.3539 4.4644e-006 -6.84469e-007 3.76031e-006 -19.389 82.8057 21.5554 2.66698e-006 -8.26871e-007 3.00322 -8.02889 -4.95146 -0.697686 175.401 -1.02584 1.49712 180 7.01537e-015 178.881 176.185 5.95871 179.705 -1.97615e-006 -1.96819e-007 0.061363 -18.0937 67.237 18.9259 8.13649 25.2326 -3.48774 -175.609 -0.852894 0.589866 4.54188e-006 -4.6773e-006 -1.19768 -3.40851 -10.4774 0.420891 1.49002e-006 -3.53109e-006 -0.14381 18.643 67.8453 -19.3988 -8.13649 25.2327 3.48774 
37.9386 98.7999 2.22279 0.805075 -4.07184 1.0523 -0.0967494 -1.4281 0.0551934 -0.19289 1.14651 0.117189 -0.194497 2.79157 0.120486 1.54808 26.4465 -1.94653 -1.43332 -8.87509 -1.6074 69.4785 -2.79358 -2.65512 117.533 35.1802 -50.4553 -5.717e-006 3.18716e-006 4.69676e-006 75.726 84.1132 -76.8449 6.16748e-007 -6.18645e-006 -3.00072 8.02887 -4.95144 0.697695 -66.6746 5.33501 -1.82156 -108.322 36.3786 22.5739 4.4644e-006 -6.84469e-007 3.76031e-006 -19.5692 82.942 21.7735 2.66698e-006 -8.26871e-007 3.00322 -8.02889 -4.95146 -0.697686 175.403 -1.03072 1.49751 180 7.01537e-015 178.881 176.186 5.96621 179.705 -1.97615e-006 -1.96819e-007 0.0613909 -18.0902 67.2325 18.9219 8.13649 25.2326 -3.48774 -175.607 -0.867135 0.586709 4.54188e-006 -4.6773e-006 -1.19788 -3.40983 -10.4789 0.420747 1.49002e-006 -3.53109e-006 -0.143968 18.6458 67.8486 -19.4018 -8.13649 25.2327 3.48774 
37.9425 98.8084 2.22656 0.803207 -4.08366 1.03952 -0.0958096 -1.42526 0.0550782 -0.190987 1.1522 0.116874 -0.192588 2.79726 0.120141 1.52464 26.4275 -1.93568 -1.41394 -8.85082 -1.60197 69.4952 -2.77675 -2.64818 117.595 35.2275 -50.5224 -5.717e-006 3.18716e-006 4.69676e-006 74.8849 84.0143 -75.9124 6.16748e-007 -6.18645e-006 -3.00072 8.02887 -4.95144 0.697695 -66.6973 5.34834 -1.82455 -108.377 36.3302 22.7903 4.4644e-006 -6.84469e-007 3.76031e-006 -19.7518 83.0936 22.0007 2.66698e-006 -8.26871e-007 3.00322 -8.02889 -4.95146 -0.697686 175.405 -1.03787 1.4982 180 7.01537e-015 178.881 176.187 5.97349 179.705 -1.97615e-006 -1.96819e-007 0.0614103 -18.0868 67.2281 18.918 8.13649 25.2326 -3.48774 -175.605 -0.883274 0.583249 4.54188e-006 -4.6773e-006 -1.19807 -3.41082 -10.4807 0.420687 1.49002e-006 -3.53109e-006 -0.144065 18.6488 67.8523 -19.4051 -8.13649 25.2327 3.48774 
37.9251 98.8116 2.25527 0.80096 -4.09769 1.02576 -0.0946494 -1.42159 0.0550496 -0.188516 1.15953 0.116762 -0.190113 2.80459 0.11999 1.49374 26.4021 -1.92258 -1.38758 -8.82187 -1.5959 69.5145 -2.75688 -2.63996 117.646 35.2871 -50.5452 -5.717e-006 3.18716e-006 4.69676e-006 74.3289 83.9322 -75.2877 6.16748e-007 -6.18645e-006 -3.00072 8.02887 -4.95144 0.697695 -66.7209 5.36129 -1.82718 -108.429 36.2672 23.0046 4.4644e-006 -6.84469e-007 3.76031e-006 -19.9437 83.2599 22.2429 2.66698e-006 -8.26871e-007 3.00322 -8.02889 -4.95146 -0.697686 175.407 -1.04726 1.49913 180 7.01537e-015 178.88 176.187 5.98079 179.705 -1.97615e-006 -1.96819e-007 0.0614151 -18.0834 67.2237 18.9139 8.13649 25.2326 -3.48774 -175.602 -0.90196 0.579399 4.54188e-006 -4.6773e-006 -1.19826 -3.41166 -10.4825 0.420703 1.49002e-006 -3.53109e-006 -0.144113 18.6521 67.8563 -19.4087 -8.13649 25.2327 3.48774 
37.927 98.8064 2.25561 0.798358 -4.11359 1.01123 -0.0932922 -1.41723 0.0551067 -0.18554 1.16826 0.116848 -0.187135 2.81333 0.120027 1.45661 26.3712 -1.90767 -1.35534 -8.78901 -1.58935 69.5358 -2.73455 -2.6307 117.687 35.3569 -50.5279 -5.717e-006 3.18716e-006 4.69676e-006 74.0218 83.8672 -74.9329 6.16748e-007 -6.18645e-006 -3.00071 8.02887 -4.95144 0.697695 -66.7451 5.37384 -1.82948 -108.476 36.191 23.2162 4.4644e-006 -6.84469e-007 3.76031e-006 -20.1469 83.4394 22.5019 2.66698e-006 -8.26871e-007 3.00322 -8.02889 -4.95146 -0.697686 175.41 -1.05859 1.50026 180 7.01537e-015 178.88 176.187 5.98806 179.704 -1.97615e-006 -1.96819e-007 0.0614085 -18.0801 67.2193 18.9098 8.13649 25.2326 -3.48774 -175.599 -0.922763 0.575197 4.54188e-006 -4.6773e-006 -1.19846 -3.41237 -10.4842 0.420786 1.49002e-006 -3.53109e-006 -0.144118 18.6557 67.8605 -19.4126 -8.13649 25.2327 3.48774 
37.928 98.8083 2.27048 0.795422 -4.13106 0.996128 -0.0917615 -1.41227 0.0552489 -0.182123 1.17817 0.117126 -0.183717 2.82324 0.12025 1.41446 26.3357 -1.89138 -1.31833 -8.75299 -1.58248 69.5589 -2.71034 -2.62067 117.718 35.4346 -50.4748 -5.717e-006 3.18716e-006 4.69676e-006 73.9334 83.8192 -74.8167 6.16748e-007 -6.18645e-006 -3.00071 8.02887 -4.95144 0.697695 -66.7699 5.38594 -1.83145 -108.518 36.1029 23.4246 4.4644e-006 -6.84469e-007 3.76031e-006 -20.3636 83.6302 22.7792 2.66698e-006 -8.26871e-007 3.00322 -8.02889 -4.95146 -0.697686 175.413 -1.07154 1.50156 180 7.01537e-015 178.88 176.187 5.99528 179.704 -1.97615e-006 -1.96819e-007 0.0613941 -18.0767 67.215 18.9057 8.13649 25.2326 -3.48774 -175.596 -0.945255 0.570682 4.54188e-006 -4.6773e-006 -1.19864 -3.41296 -10.4859 0.420927 1.49002e-006 -3.53109e-006 -0.144087 18.6594 67.865 -19.4167 -8.13649 25.2327 3.48774 
